<svg width="3010" height="2637" viewBox="0 0 3010 2637" fill="none" xmlns="http://www.w3.org/2000/svg">
<path d="M525.623 1731.33L696.663 1535.7L669.086 1508.13L840.099 1312.53L867.676 1340.1L1038.72 1144.47L1011.14 1116.9L1182.15 921.295L1209.73 948.872L1380.79 753.264L1353.22 725.687L1524.26 530.057L1551.83 557.634L1720.27 364.975L1669.27 324.417L1505.69 511.489L1478.11 483.912L1307.07 679.542L1334.65 707.119L1163.61 902.75L1136.03 875.173L965.018 1070.77L992.594 1098.35L821.531 1293.96L793.954 1266.38L622.942 1461.98L650.519 1489.56L479.477 1685.19L451.901 1657.61L308.185 1821.97L359.202 1862.55L498.047 1703.76L525.623 1731.33Z" fill="#11E94E"/>
<path d="M665.75 1795.48L836.79 1599.85L809.213 1572.28L980.226 1376.68L1007.8 1404.25L1178.84 1208.62L1151.27 1181.05L1322.28 985.446L1349.86 1013.02L1520.92 817.414L1493.34 789.838L1664.38 594.208L1691.96 621.784L1860.4 429.126L1809.4 388.567L1645.82 575.639L1618.24 548.063L1447.2 743.693L1474.78 771.269L1303.73 966.9L1276.16 939.323L1105.14 1134.92L1132.72 1162.5L961.658 1358.11L934.081 1330.53L763.069 1526.13L790.645 1553.71L619.605 1749.34L592.028 1721.76L448.312 1886.11L499.329 1926.7L638.174 1767.91L665.75 1795.48Z" fill="#11E94E"/>
<path d="M805.877 1859.63L976.917 1664L949.34 1636.43L1120.35 1440.83L1147.93 1468.4L1318.97 1272.77L1291.39 1245.2L1462.41 1049.6L1489.98 1077.17L1661.05 881.564L1633.47 853.987L1804.51 658.358L1832.09 685.934L2000.52 493.276L1949.53 452.717L1785.94 639.789L1758.37 612.212L1587.33 807.843L1614.9 835.419L1443.86 1031.05L1416.28 1003.47L1245.27 1199.07L1272.85 1226.65L1101.78 1422.26L1074.21 1394.68L903.195 1590.28L930.772 1617.86L759.732 1813.49L732.155 1785.91L588.439 1950.26L639.456 1990.85L778.3 1832.06L805.877 1859.63Z" fill="#11E94E"/>
<path d="M946.004 1923.78L1117.04 1728.15L1089.47 1700.58L1260.48 1504.98L1288.06 1532.55L1459.1 1336.92L1431.52 1309.35L1602.53 1113.75L1630.11 1141.32L1801.17 945.714L1773.6 918.137L1944.64 722.508L1972.21 750.085L2140.65 557.426L2089.66 516.867L1926.07 703.939L1898.49 676.362L1727.45 871.993L1755.03 899.57L1583.99 1095.2L1556.41 1067.62L1385.4 1263.22L1412.97 1290.8L1241.91 1486.41L1214.34 1458.83L1043.32 1654.43L1070.9 1682.01L899.859 1877.64L872.282 1850.06L728.566 2014.42L779.583 2055L918.427 1896.21L946.004 1923.78Z" fill="#11E94E"/>
<path d="M1086.13 1987.93L1257.17 1792.3L1229.59 1764.73L1400.61 1569.13L1428.18 1596.7L1599.22 1401.07L1571.65 1373.5L1742.66 1177.9L1770.24 1205.47L1941.3 1009.86L1913.72 982.287L2084.76 786.658L2112.34 814.235L2280.78 621.576L2229.78 581.017L2066.2 768.089L2038.62 740.513L1867.58 936.143L1895.16 963.719L1724.11 1159.35L1696.54 1131.77L1525.53 1327.37L1553.1 1354.95L1382.04 1550.56L1354.46 1522.98L1183.45 1718.58L1211.03 1746.16L1039.99 1941.79L1012.41 1914.21L868.693 2078.57L919.71 2119.15L1058.55 1960.36L1086.13 1987.93Z" fill="#11E94E"/>
<path d="M1226.26 2052.08L1397.3 1856.45L1369.72 1828.88L1540.73 1633.28L1568.31 1660.85L1739.35 1465.22L1711.77 1437.65L1882.79 1242.05L1910.36 1269.62L2081.43 1074.01L2053.85 1046.44L2224.89 850.808L2252.47 878.385L2420.91 685.726L2369.91 645.168L2206.32 832.239L2178.75 804.663L2007.71 1000.29L2035.28 1027.87L1864.24 1223.5L1836.67 1195.92L1665.65 1391.53L1693.23 1419.1L1522.17 1614.71L1494.59 1587.13L1323.58 1782.73L1351.15 1810.31L1180.11 2005.94L1152.54 1978.36L1008.82 2142.72L1059.84 2183.3L1198.68 2024.51L1226.26 2052.08Z" fill="#11E94E"/>
<path d="M1366.38 2116.24L1537.42 1920.6L1509.85 1893.03L1680.86 1697.43L1708.44 1725L1879.48 1529.37L1851.9 1501.8L2022.91 1306.2L2050.49 1333.77L2221.55 1138.16L2193.98 1110.59L2365.02 914.959L2392.6 942.535L2561.03 749.876L2510.04 709.318L2346.45 896.389L2318.87 868.813L2147.83 1064.44L2175.41 1092.02L2004.37 1287.65L1976.79 1260.07L1805.78 1455.68L1833.36 1483.25L1662.29 1678.86L1634.72 1651.28L1463.7 1846.88L1491.28 1874.46L1320.24 2070.09L1292.66 2042.51L1148.95 2206.87L1199.96 2247.45L1338.81 2088.66L1366.38 2116.24Z" fill="#11E94E"/>
<path d="M1506.51 2180.39L1677.55 1984.75L1649.98 1957.18L1820.99 1761.58L1848.56 1789.15L2019.6 1593.52L1992.03 1565.95L2163.04 1370.35L2190.62 1397.92L2361.68 1202.31L2334.11 1174.74L2505.15 979.109L2532.72 1006.69L2701.16 814.027L2650.16 773.468L2486.58 960.54L2459 932.964L2287.96 1128.59L2315.54 1156.17L2144.5 1351.8L2116.92 1324.22L1945.91 1519.83L1973.48 1547.4L1802.42 1743.01L1774.84 1715.43L1603.83 1911.03L1631.41 1938.61L1460.37 2134.24L1432.79 2106.66L1289.07 2271.02L1340.09 2311.6L1478.94 2152.81L1506.51 2180.39Z" fill="#11E94E"/>
</svg>
